<?xml version="1.0" standalone="no"?><!DOCTYPE svg PUBLIC "-//W3C//DTD SVG 1.1//EN" "http://www.w3.org/Graphics/SVG/1.1/DTD/svg11.dtd"><svg width="100%" height="100%" viewBox="0 0 144 144" version="1.1" xmlns="http://www.w3.org/2000/svg" xmlns:xlink="http://www.w3.org/1999/xlink" xml:space="preserve" style="fill-rule:evenodd;clip-rule:evenodd;stroke-linejoin:round;stroke-miterlimit:1.41421;"><g id="background"><rect x="0.003" y="-0.024" width="143.994" height="144.049" style="fill:#fff;"/></g><path id="container" d="M128.053,16.007l0,112.048l-112.033,0l0,-112.048l112.033,0ZM118.023,25.987l-91.993,0l0,92.018l91.993,0l0,-92.018Z" style="fill:#000;"/><rect x="42.665" y="77.062" width="4.17" height="4.05" style="fill:#000;fill-rule:nonzero;"/><path d="M64.445,72.712l0,-3.51l-8.76,0l0,-4.53l10.02,0l0,-3.48l-14.19,0l0,19.92l4.17,0l0,-8.4l8.76,0Z" style="fill:#000;fill-rule:nonzero;"/><rect x="68.795" y="61.192" width="4.17" height="19.92" style="fill:#000;fill-rule:nonzero;"/><path d="M85.655,81.112l0,-16.44l6.03,0l0,-3.48l-16.2,0l0,3.48l6,0l0,16.44l4.17,0Z" style="fill:#000;fill-rule:nonzero;"/><path d="M103.505,64.642c2.07,0 2.91,1.11 2.91,2.67c0,1.53 -0.78,2.64 -3.06,2.64l-5.22,0l0,-5.31l5.37,0ZM109.775,81.112l0,-5.64c0,-2.31 -0.63,-3.33 -2.43,-3.9c1.92,-0.69 2.97,-2.46 2.97,-4.62c0,-3.3 -2.43,-5.76 -6.12,-5.76l-10.11,0l0,19.92l4.05,0l0,-7.8l4.44,0c2.4,0 3.12,0.75 3.12,2.67l0,5.13l4.08,0Z" style="fill:#000;fill-rule:nonzero;"/><path d="M60.511,108.182l0,-10.71l-8.31,0l0,3.33l4.41,0c0,2.49 -2.13,4.56 -4.86,4.56c-3.87,0 -5.52,-3.72 -5.52,-6.99c0,-4.8 2.16,-7.32 5.55,-7.32c2.31,0 4.26,1.53 4.5,3.36l4.2,0c-0.33,-3.96 -3.96,-6.81 -8.7,-6.81c-6.45,0 -9.81,4.71 -9.81,10.59c0,5.55 3.51,10.68 9.03,10.68c2.76,0 5.01,-0.99 5.97,-2.67l0.09,1.98l3.45,0Z" style="fill:#000;fill-rule:nonzero;"/><path d="M73.951,91.712c2.07,0 2.91,1.11 2.91,2.67c0,1.53 -0.78,2.64 -3.06,2.64l-5.22,0l0,-5.31l5.37,0ZM80.221,108.182l0,-5.64c0,-2.31 -0.63,-3.33 -2.43,-3.9c1.92,-0.69 2.97,-2.46 2.97,-4.62c0,-3.3 -2.43,-5.76 -6.12,-5.76l-10.11,0l0,19.92l4.05,0l0,-7.8l4.44,0c2.4,0 3.12,0.75 3.12,2.67l0,5.13l4.08,0Z" style="fill:#000;fill-rule:nonzero;"/><rect x="84.601" y="88.262" width="4.17" height="19.92" style="fill:#000;fill-rule:nonzero;"/><path d="M97.441,104.792l0,-13.08l3.09,0c3.99,0 5.55,1.8 5.55,6.3c0,4.56 -1.56,6.78 -5.19,6.78l-3.45,0ZM101.731,108.182c5.16,0 8.61,-4.08 8.61,-10.17c0,-6.06 -3.84,-9.75 -9.24,-9.75l-7.71,0l0,19.92l8.34,0Z" style="fill:#000;fill-rule:nonzero;"/></svg>
